<?xml version="1.0" encoding="utf-8"?>
<!-- Generator: Adobe Illustrator 26.0.3, SVG Export Plug-In . SVG Version: 6.00 Build 0)  -->
<svg version="1.1"
	 id="svg20" sodipodi:docname="adobe-Illustrator-logo.svg" xmlns:cc="http://creativecommons.org/ns#" xmlns:dc="http://purl.org/dc/elements/1.1/" xmlns:inkscape="http://www.inkscape.org/namespaces/inkscape" xmlns:rdf="http://www.w3.org/1999/02/22-rdf-syntax-ns#" xmlns:sodipodi="http://sodipodi.sourceforge.net/DTD/sodipodi-0.dtd" xmlns:svg="http://www.w3.org/2000/svg"
	 xmlns="http://www.w3.org/2000/svg" xmlns:xlink="http://www.w3.org/1999/xlink" x="0px" y="0px" viewBox="0 0 26 26"
	 style="enable-background:new 0 0 26 26;" xml:space="preserve">
<style type="text/css">
	.st0{fill:#330000;}
	.st1{fill:#FF9A00;}
</style>
<sodipodi:namedview  bordercolor="#666666" borderopacity="1" gridtolerance="10" guidetolerance="10" id="namedview22" inkscape:current-layer="svg20" inkscape:cx="333.84615" inkscape:cy="243.2365" inkscape:pageopacity="0" inkscape:pageshadow="2" inkscape:window-height="837" inkscape:window-maximized="1" inkscape:window-width="1600" inkscape:window-x="-8" inkscape:window-y="-8" inkscape:zoom="0.71315043" objecttolerance="10" pagecolor="#ffffff" showgrid="false">
	</sodipodi:namedview>
<g id="Layer_2" transform="matrix(2.09238,0,0,2.09238,98.9144,105.19154)" inkscape:export-filename="G:\Users\suitedoalex\sites\adobe-Illustrator-logo-4.png" inkscape:export-xdpi="76.467949" inkscape:export-ydpi="76.467949">
	<g id="Surfaces">
		<g id="Drawing_Surface">
			<g id="Outline_no_shadow">
				<path id="rect8" class="st0" d="M-45.1-50.3h8c1.2,0,2.2,1,2.2,2.3v7.9c0,1.2-1,2.3-2.2,2.3h-8c-1.2,0-2.2-1-2.2-2.3V-48
					C-47.3-49.3-46.3-50.3-45.1-50.3z"/>
			</g>
		</g>
	</g>
	<g id="Outlined_Mnemonics_Logos">
		<g id="Ai">
			<path id="path13" inkscape:connector-curvature="0" class="st1" d="M-41.3-42.8h-1.9l-0.4,1.2c0,0-0.1,0.1-0.1,0.1h-1
				c-0.1,0-0.1,0-0.1-0.1l1.7-4.9c0-0.1,0-0.1,0.1-0.2c0-0.1,0-0.2,0-0.3c0,0,0-0.1,0-0.1c0,0,0,0,0,0h1.3c0,0,0.1,0,0.1,0l1.9,5.5
				c0,0.1,0,0.1-0.1,0.1h-1.1c0,0-0.1,0-0.1-0.1L-41.3-42.8z M-42.9-43.9h1.3c0-0.1-0.1-0.2-0.1-0.4c0-0.1-0.1-0.3-0.1-0.5
				c-0.1-0.2-0.1-0.3-0.2-0.5c-0.1-0.2-0.1-0.3-0.1-0.5c0-0.2-0.1-0.3-0.1-0.4h0c0,0.2-0.1,0.5-0.2,0.7c-0.1,0.3-0.2,0.5-0.2,0.8
				C-42.7-44.4-42.8-44.1-42.9-43.9L-42.9-43.9z"/>
			<path id="path15" inkscape:connector-curvature="0" class="st1" d="M-38.5-46.2c-0.2,0-0.3-0.1-0.5-0.2c-0.1-0.1-0.2-0.3-0.2-0.5
				c0-0.2,0.1-0.4,0.2-0.5c0.1-0.1,0.3-0.2,0.5-0.2c0.2,0,0.4,0.1,0.5,0.2c0.1,0.1,0.2,0.3,0.2,0.5c0,0.2-0.1,0.4-0.2,0.5
				C-38.1-46.2-38.3-46.2-38.5-46.2L-38.5-46.2z M-39.1-41.6v-4.1c0-0.1,0-0.1,0.1-0.1h1c0,0,0.1,0,0.1,0.1v4.1c0,0.1,0,0.1-0.1,0.1
				L-39.1-41.6C-39-41.5-39.1-41.5-39.1-41.6z"/>
		</g>
	</g>
</g>
</svg>
