<?xml version="1.0" encoding="utf-8"?>
<!-- Generator: Adobe Illustrator 26.1.0, SVG Export Plug-In . SVG Version: 6.00 Build 0)  -->
<svg version="1.1" id="Capa_1" focusable="false" xmlns="http://www.w3.org/2000/svg" xmlns:xlink="http://www.w3.org/1999/xlink"
	 x="0px" y="0px" viewBox="0 0 26 26" style="enable-background:new 0 0 26 26;" xml:space="preserve">
<style type="text/css">
	.st0{fill:#B7B7B7;}
</style>
<path class="st0" d="M13,0C5.8,0,0,5.8,0,13s5.8,13,13,13s13-5.8,13-13S20.2,0,13,0z M11.5,13.3L6.8,18c-0.2,0.2-0.6,0.2-0.8,0
	l-0.5-0.5c-0.2-0.2-0.2-0.6,0-0.8l3.7-3.8L5.4,9.2C5.2,9,5.2,8.6,5.4,8.4L6,7.8c0.2-0.2,0.6-0.2,0.8,0l4.7,4.7
	C11.7,12.7,11.7,13.1,11.5,13.3z M20.8,17.8c0,0.3-0.3,0.6-0.6,0.6h-7.4c-0.3,0-0.6-0.3-0.6-0.6V17c0-0.3,0.3-0.6,0.6-0.6h7.4
	c0.3,0,0.6,0.3,0.6,0.6V17.8L20.8,17.8z"/>
</svg>
