<?xml version="1.0" encoding="utf-8"?>
<!-- Generator: Adobe Illustrator 26.0.3, SVG Export Plug-In . SVG Version: 6.00 Build 0)  -->
<svg version="1.1" id="Capa_1" focusable="false" xmlns="http://www.w3.org/2000/svg" xmlns:xlink="http://www.w3.org/1999/xlink"
	 x="0px" y="0px" viewBox="0 0 640 512" style="enable-background:new 0 0 640 512;" xml:space="preserve">
<style type="text/css">
	.st0{fill:#FFFFFF;}
</style>
<path class="st0" d="M320,0C178.6,0,64,114.6,64,256s114.6,256,256,256s256-114.6,256-256S461.4,0,320,0z M290.3,262.8l-92.9,92.9
	c-4.5,4.5-11.8,4.5-16.2,0l-10.8-10.8c-4.5-4.5-4.5-11.7,0-16.2l73.7-74l-73.7-74c-4.5-4.5-4.5-11.7,0-16.2l10.8-10.8
	c4.5-4.5,11.8-4.5,16.2,0l92.9,92.9C294.8,251,294.8,258.3,290.3,262.8z M473,350.3c0,6.3-5.1,11.5-11.5,11.5H316.2
	c-6.3,0-11.5-5.1-11.5-11.5V335c0-6.3,5.1-11.5,11.5-11.5h145.4c6.3,0,11.5,5.1,11.5,11.5V350.3z"/>
</svg>
