<?xml version="1.0" encoding="utf-8"?>
<!-- Generator: Adobe Illustrator 26.0.3, SVG Export Plug-In . SVG Version: 6.00 Build 0)  -->
<svg version="1.1" id="Capa_1" focusable="false" xmlns="http://www.w3.org/2000/svg" xmlns:xlink="http://www.w3.org/1999/xlink"
	 x="0px" y="0px" viewBox="0 0 19.5 26" style="enable-background:new 0 0 19.5 26;" xml:space="preserve">
<style type="text/css">
	.st0{fill:#FFFFFF;}
</style>
<path class="st0" d="M0.7,4.9C0.7,2.2,2.9,0,5.6,0h8.3c2.7,0,4.9,2.2,4.9,4.9c0,1.7-0.9,3.2-2.2,4.1c1.3,0.9,2.2,2.4,2.2,4.1
	c0,2.7-2.2,4.9-4.9,4.9h-0.1c-1.3,0-2.4-0.5-3.3-1.3v4.5c0,2.7-2.2,4.9-4.9,4.9c-2.7,0-4.9-2.2-4.9-4.9c0-1.7,0.9-3.2,2.2-4.1
	c-1.3-0.9-2.2-2.4-2.2-4.1s0.9-3.2,2.2-4.1C1.6,8.1,0.7,6.6,0.7,4.9z M9,9.7H5.6c-1.8,0-3.3,1.5-3.3,3.3c0,1.8,1.5,3.3,3.3,3.3
	c0,0,0,0,0,0H9V9.7z M10.5,13c0,1.8,1.5,3.3,3.3,3.3h0.1c1.8,0,3.3-1.5,3.3-3.3s-1.5-3.3-3.3-3.3h-0.1C12,9.7,10.5,11.2,10.5,13z
	 M5.6,17.9C5.6,17.9,5.6,17.9,5.6,17.9c-1.8,0-3.3,1.5-3.3,3.3c0,1.8,1.5,3.3,3.3,3.3c1.8,0,3.4-1.5,3.4-3.3v-3.2L5.6,17.9L5.6,17.9
	z M5.6,1.6c-1.8,0-3.3,1.5-3.3,3.3s1.5,3.3,3.3,3.3H9V1.6H5.6z M10.5,8.1h3.4c1.8,0,3.3-1.5,3.3-3.3s-1.5-3.3-3.3-3.3h-3.4L10.5,8.1
	L10.5,8.1z"/>
</svg>
