<?xml version="1.0" encoding="utf-8"?>
<!-- Generator: Adobe Illustrator 26.0.3, SVG Export Plug-In . SVG Version: 6.00 Build 0)  -->
<svg version="1.1" id="Capa_1" focusable="false" xmlns="http://www.w3.org/2000/svg" xmlns:xlink="http://www.w3.org/1999/xlink"
	 x="0px" y="0px" viewBox="0 0 26 26" style="enable-background:new 0 0 26 26;" xml:space="preserve">
<style type="text/css">
	.st0{fill:#F05030;}
</style>
<path class="st0" d="M25.5,11.8L14.1,0.5c-0.7-0.7-1.7-0.7-2.4,0L9.4,2.9l3,3c1.6-0.5,3.1,1,2.5,2.5l2.9,2.9c2-0.7,3.6,1.8,2.1,3.3
	c-1.5,1.5-4.1-0.2-3.2-2.2l-2.7-2.7v7.1c1.5,0.7,1.3,2.4,0.5,3.2c-0.8,0.8-2,0.8-2.8,0c-1-1-0.6-2.7,0.6-3.2V9.6
	C11,9.1,10.8,7.8,11.2,7L8.2,4l-7.8,7.8c-0.7,0.7-0.7,1.7,0,2.4l11.4,11.4c0.7,0.7,1.7,0.7,2.4,0l11.3-11.3
	C26.1,13.6,26.1,12.5,25.5,11.8L25.5,11.8z"/>
</svg>
