<?xml version="1.0" encoding="utf-8"?>
<!-- Generator: Adobe Illustrator 26.1.0, SVG Export Plug-In . SVG Version: 6.00 Build 0)  -->
<svg version="1.1" id="Capa_1" focusable="false" xmlns="http://www.w3.org/2000/svg" xmlns:xlink="http://www.w3.org/1999/xlink"
	 x="0px" y="0px" viewBox="0 0 26 26" style="enable-background:new 0 0 26 26;" xml:space="preserve">
<style type="text/css">
	.st0{fill:#B7B7B7;}
</style>
<path class="st0" d="M8.7,20.9c0,0.1-0.1,0.2-0.3,0.2S8.1,21,8.1,20.9s0.1-0.2,0.3-0.2C8.6,20.7,8.7,20.8,8.7,20.9z M7.1,20.7
	c0,0.1,0.1,0.2,0.2,0.3c0.1,0.1,0.3,0,0.3-0.1s-0.1-0.2-0.2-0.3C7.3,20.5,7.1,20.6,7.1,20.7L7.1,20.7z M9.4,20.6
	c-0.2,0-0.3,0.1-0.2,0.3C9.2,21,9.3,21,9.5,21s0.3-0.1,0.2-0.2C9.7,20.7,9.5,20.6,9.4,20.6z M12.8,0C5.6,0,0,5.7,0,13.1
	c0,6,3.7,11.1,8.9,12.9c0.7,0.1,0.9-0.3,0.9-0.7c0-0.3,0-2.2,0-3.3c0,0-3.7,0.8-4.4-1.6c0,0-0.6-1.6-1.5-2c0,0-1.2-0.8,0.1-0.8
	c0,0,1.3,0.1,2,1.4c1.1,2.1,3.1,1.5,3.8,1.1c0.1-0.9,0.5-1.5,0.8-1.8c-2.9-0.3-5.9-0.8-5.9-5.9c0-1.5,0.4-2.2,1.2-3.2
	c0-0.3-0.5-1.8,0.2-3.6C7.2,5.2,9.8,7,9.8,7c1-0.3,2.2-0.5,3.3-0.5s2.2,0.2,3.3,0.5c0,0,2.5-1.8,3.6-1.5c0.7,1.9,0.3,3.3,0.1,3.7
	c0.8,1,1.4,1.7,1.4,3.2c0,5.2-3.1,5.6-6,5.9c0.5,0.4,0.9,1.2,0.9,2.5c0,1.8,0,4.1,0,4.5c0,0.3,0.2,0.8,0.9,0.7
	c5.2-1.8,8.8-6.9,8.8-12.8C26,5.7,20.1,0,12.8,0z M5.1,18.5c-0.1,0.1-0.1,0.2,0,0.3c0.1,0.1,0.2,0.1,0.3,0.1c0.1-0.1,0.1-0.2,0-0.3
	C5.3,18.5,5.2,18.5,5.1,18.5z M4.5,18.1c0,0.1,0,0.2,0.1,0.2c0.1,0.1,0.2,0,0.2,0c0-0.1,0-0.2-0.1-0.2C4.6,18,4.6,18.1,4.5,18.1z
	 M6.2,20c-0.1,0.1-0.1,0.2,0.1,0.3c0.1,0.1,0.3,0.1,0.3,0.1c0.1-0.1,0-0.2-0.1-0.3C6.5,20,6.3,19.9,6.2,20z M5.6,19.2
	c-0.1,0.1-0.1,0.2,0,0.3s0.2,0.2,0.3,0.1c0.1-0.1,0.1-0.2,0-0.3C5.8,19.2,5.7,19.2,5.6,19.2L5.6,19.2z"/>
</svg>
