<?xml version="1.0" encoding="utf-8"?>
<!-- Generator: Adobe Illustrator 26.0.3, SVG Export Plug-In . SVG Version: 6.00 Build 0)  -->
<svg version="1.1" id="Capa_1" focusable="false" xmlns="http://www.w3.org/2000/svg" xmlns:xlink="http://www.w3.org/1999/xlink"
	 x="0px" y="0px" viewBox="0 0 26 26" style="enable-background:new 0 0 26 26;" xml:space="preserve">
<style type="text/css">
	.st0{fill:#FFFFFF;}
</style>
<g>
	<path class="st0" d="M13,4c3.7,0,7.5,0,11.2,0C25.6,4,26,4.4,26,5.8c0,4.8,0,9.6,0,14.4c0,1.4-0.4,1.8-1.8,1.8
		c-7.5,0-14.9,0-22.4,0C0.5,22,0,21.5,0,20.2c0-4.8,0-9.6,0-14.5C0,4.5,0.5,4,1.8,4C5.5,4,9.3,4,13,4z M2.6,19.4
		c6.9,0,13.8,0,20.7,0c0-3.9,0-7.7,0-11.6c-0.3,0.2-0.5,0.3-0.8,0.5c-2.8,1.9-5.6,3.7-8.4,5.6c-1,0.7-1.3,0.7-2.3,0
		C9,11.9,6.1,10,3.3,8.1C3.1,8,2.9,7.9,2.6,7.7C2.6,11.7,2.6,15.5,2.6,19.4z M5.8,6.6C5.9,6.8,6,6.8,6,6.9c2.2,1.5,4.4,2.9,6.7,4.4
		c0.2,0.1,0.5,0,0.7-0.1c2.1-1.4,4.3-2.8,6.4-4.2c0.1-0.1,0.2-0.2,0.4-0.3C15.4,6.6,10.6,6.6,5.8,6.6z"/>
</g>
</svg>
