<?xml version="1.0" encoding="utf-8"?>
<!-- Generator: Adobe Illustrator 26.1.0, SVG Export Plug-In . SVG Version: 6.00 Build 0)  -->
<svg version="1.1" id="Capa_1" focusable="false" xmlns="http://www.w3.org/2000/svg" xmlns:xlink="http://www.w3.org/1999/xlink"
	 x="0px" y="0px" viewBox="0 0 26 26" style="enable-background:new 0 0 26 26;" xml:space="preserve">
<style type="text/css">
	.st0{fill:#F7E018;}
</style>
<path class="st0" d="M0,0v26h26V0H0z M14.1,20.3c0,2.5-1.5,3.7-3.7,3.7c-2,0-3.1-1-3.7-2.2l2-1.2c0.4,0.7,0.7,1.3,1.6,1.3
	c0.8,0,1.3-0.3,1.3-1.5v-8.3H14L14.1,20.3L14.1,20.3z M19.9,24c-2.3,0-3.7-1.1-4.5-2.5l2-1.1c0.5,0.9,1.2,1.5,2.4,1.5
	c1,0,1.7-0.5,1.7-1.2c0-0.8-0.7-1.1-1.8-1.6l-0.6-0.3C17.4,18,16.2,17,16.2,15c0-1.8,1.4-3.2,3.6-3.2c1.6,0,2.7,0.5,3.5,2L21.4,15
	c-0.4-0.7-0.9-1-1.6-1s-1.2,0.5-1.2,1c0,0.7,0.5,1,1.5,1.5l0.6,0.3c2.1,0.9,3.2,1.8,3.2,3.8C24,22.8,22.2,24,19.9,24L19.9,24z"/>
</svg>
