<?xml version="1.0" encoding="utf-8"?>
<!-- Generator: Adobe Illustrator 26.0.3, SVG Export Plug-In . SVG Version: 6.00 Build 0)  -->
<svg version="1.1" id="Capa_1" focusable="false" xmlns="http://www.w3.org/2000/svg" xmlns:xlink="http://www.w3.org/1999/xlink"
	 x="0px" y="0px" viewBox="0 0 26 26" style="enable-background:new 0 0 26 26;" xml:space="preserve">
<style type="text/css">
	.st0{fill:#83CD29;}
</style>
<path class="st0" d="M13.1,26c-0.3,0-0.7-0.1-1-0.3l-3.2-1.9c-0.5-0.3-0.2-0.4-0.1-0.4c0.6-0.2,0.8-0.3,1.4-0.7c0.1,0,0.2,0,0.2,0
	l2.4,1.4c0.1,0.1,0.2,0.1,0.3,0l9.5-5.5c0.1-0.1,0.1-0.2,0.1-0.3v-11c0-0.1-0.1-0.2-0.1-0.3l-9.5-5.5c-0.1-0.1-0.2-0.1-0.3,0
	L3.4,7.2C3.3,7.3,3.3,7.4,3.3,7.5v11c0,0.1,0.1,0.2,0.1,0.3L6,20.3c1.4,0.7,2.3-0.1,2.3-1V8.4c0-0.2,0.1-0.3,0.3-0.3h1.2
	c0.1,0,0.3,0.1,0.3,0.3v10.9c0,1.9-1,3-2.8,3c-0.6,0-1,0-2.2-0.6l-2.5-1.4c-0.6-0.4-1-1-1-1.7v-11c0-0.7,0.4-1.4,1-1.7l9.5-5.5
	c0.6-0.3,1.4-0.3,2,0l9.5,5.5c0.6,0.4,1,1,1,1.7v11c0,0.7-0.4,1.4-1,1.7l-9.5,5.5C13.8,25.9,13.4,26,13.1,26z M20.8,15.2
	c0-2.1-1.4-2.6-4.3-3c-3-0.4-3.3-0.6-3.3-1.3c0-0.6,0.3-1.3,2.4-1.3c2,0,2.7,0.4,3,1.7c0,0.1,0.1,0.2,0.3,0.2h1.2
	c0.1,0,0.1,0,0.2-0.1s0.1-0.1,0.1-0.2c-0.2-2.3-1.7-3.3-4.8-3.3c-2.7,0-4.3,1.1-4.3,3.1c0,2.1,1.6,2.7,4.2,2.9
	c3.1,0.3,3.4,0.8,3.4,1.4c0,1.1-0.9,1.5-2.9,1.5c-2.5,0-3.1-0.6-3.3-1.9c0-0.1-0.1-0.2-0.3-0.2h-1.2c-0.2,0-0.3,0.1-0.3,0.3
	c0,1.6,0.9,3.5,5,3.5C19.1,18.4,20.8,17.2,20.8,15.2L20.8,15.2z"/>
</svg>
