<?xml version="1.0" encoding="utf-8"?>
<!-- Generator: Adobe Illustrator 26.0.3, SVG Export Plug-In . SVG Version: 6.00 Build 0)  -->
<svg version="1.1"
	 id="svg20" sodipodi:docname="adobe-photoshop-logo-2021.svg" xmlns:cc="http://creativecommons.org/ns#" xmlns:dc="http://purl.org/dc/elements/1.1/" xmlns:inkscape="http://www.inkscape.org/namespaces/inkscape" xmlns:rdf="http://www.w3.org/1999/02/22-rdf-syntax-ns#" xmlns:sodipodi="http://sodipodi.sourceforge.net/DTD/sodipodi-0.dtd" xmlns:svg="http://www.w3.org/2000/svg"
	 xmlns="http://www.w3.org/2000/svg" xmlns:xlink="http://www.w3.org/1999/xlink" x="0px" y="0px" viewBox="0 0 26 26"
	 style="enable-background:new 0 0 26 26;" xml:space="preserve">
<style type="text/css">
	.st0{fill:#001E36;}
	.st1{fill:#31A8FF;}
</style>
<sodipodi:namedview  bordercolor="#666666" borderopacity="1" gridtolerance="10" guidetolerance="10" id="namedview22" inkscape:current-layer="svg20" inkscape:cx="393.14717" inkscape:cy="320.92781" inkscape:pageopacity="0" inkscape:pageshadow="2" inkscape:window-height="837" inkscape:window-maximized="1" inkscape:window-width="1600" inkscape:window-x="-8" inkscape:window-y="-8" inkscape:zoom="0.71315043" objecttolerance="10" pagecolor="#ffffff" showgrid="false">
	</sodipodi:namedview>
<g id="Layer_2" transform="matrix(2.0606602,0,0,2.0606602,102.72078,108.90276)" inkscape:export-filename="G:\Users\suitedoalex\sites\adobe-photoshop-logo-4.png" inkscape:export-xdpi="77.645012" inkscape:export-ydpi="77.645012">
	<g id="Surfaces">
		<g id="Photo_Surface">
			<g id="Outline_no_shadow">
				<path id="rect8" class="st0" d="M-47.6-52.8h8.1c1.2,0,2.2,1,2.2,2.3v8c0,1.3-1,2.3-2.2,2.3h-8.1c-1.2,0-2.2-1-2.2-2.3v-8
					C-49.8-51.8-48.8-52.8-47.6-52.8z"/>
			</g>
		</g>
	</g>
	<g id="Outlined_Mnemonics_Logos">
		<g id="Ps">
			<path id="path13" inkscape:connector-curvature="0" class="st1" d="M-47-44v-5.5c0,0,0-0.1,0.1-0.1c0.1,0,0.2,0,0.3,0
				c0.1,0,0.3,0,0.4,0c0.1,0,0.3,0,0.5,0c0.2,0,0.3,0,0.5,0c0.4,0,0.8,0.1,1.1,0.2c0.3,0.1,0.5,0.2,0.7,0.4c0.2,0.2,0.3,0.4,0.4,0.6
				c0.1,0.2,0.1,0.5,0.1,0.7c0,0.5-0.1,0.8-0.3,1.1c-0.2,0.3-0.5,0.5-0.8,0.7c-0.4,0.1-0.8,0.2-1.2,0.2c-0.1,0-0.2,0-0.3,0
				c-0.1,0-0.1,0-0.2,0v1.7c0,0,0,0.1-0.1,0.1c0,0,0,0,0,0L-47-44C-47-43.9-47-44-47-44L-47-44z M-45.9-48.6v1.8c0.1,0,0.1,0,0.2,0
				h0.3c0.2,0,0.4,0,0.6-0.1c0.2-0.1,0.3-0.2,0.4-0.3c0.1-0.1,0.2-0.3,0.2-0.6c0-0.2,0-0.3-0.1-0.5c-0.1-0.1-0.2-0.2-0.4-0.3
				c-0.2-0.1-0.4-0.1-0.6-0.1c-0.1,0-0.3,0-0.4,0C-45.8-48.6-45.8-48.6-45.9-48.6L-45.9-48.6z"/>
			<path id="path15" inkscape:connector-curvature="0" class="st1" d="M-39.8-47.1c-0.2-0.1-0.3-0.1-0.5-0.2c-0.2,0-0.4-0.1-0.6-0.1
				c-0.1,0-0.2,0-0.3,0c-0.1,0-0.1,0.1-0.2,0.1c0,0,0,0.1,0,0.1c0,0.1,0,0.1,0.1,0.1c0,0.1,0.1,0.1,0.2,0.1c0.1,0.1,0.2,0.1,0.4,0.2
				c0.3,0.1,0.6,0.2,0.8,0.4c0.2,0.1,0.3,0.3,0.4,0.4c0.1,0.2,0.1,0.4,0.1,0.6c0,0.3-0.1,0.5-0.2,0.7c-0.1,0.2-0.4,0.4-0.6,0.5
				c-0.3,0.1-0.6,0.2-1,0.2c-0.2,0-0.5,0-0.7-0.1c-0.2,0-0.4-0.1-0.5-0.2c0,0-0.1-0.1-0.1-0.1v-0.9c0,0,0,0,0,0c0,0,0,0,0,0
				c0.2,0.1,0.4,0.2,0.7,0.3c0.2,0.1,0.4,0.1,0.6,0.1c0.2,0,0.3,0,0.4-0.1c0.1,0,0.1-0.1,0.1-0.2c0-0.1,0-0.1-0.1-0.2
				c-0.1-0.1-0.3-0.2-0.5-0.3c-0.3-0.1-0.5-0.2-0.7-0.4c-0.2-0.1-0.3-0.3-0.4-0.5c-0.1-0.2-0.1-0.4-0.1-0.6c0-0.2,0.1-0.5,0.2-0.7
				c0.1-0.2,0.3-0.4,0.6-0.5c0.2-0.1,0.6-0.2,0.9-0.2c0.2,0,0.4,0,0.7,0c0.2,0,0.3,0.1,0.5,0.1c0,0,0,0,0.1,0c0,0,0,0,0,0.1
				L-39.8-47.1C-39.7-47.1-39.7-47.1-39.8-47.1C-39.7-47.1-39.7-47.1-39.8-47.1L-39.8-47.1z"/>
		</g>
	</g>
</g>
</svg>
