<?xml version="1.0" encoding="utf-8"?>
<!-- Generator: Adobe Illustrator 26.1.0, SVG Export Plug-In . SVG Version: 6.00 Build 0)  -->
<svg version="1.1" id="Capa_1" focusable="false" xmlns="http://www.w3.org/2000/svg" xmlns:xlink="http://www.w3.org/1999/xlink"
	 x="0px" y="0px" viewBox="0 0 26 26" style="enable-background:new 0 0 26 26;" xml:space="preserve">
<style type="text/css">
	.st0{fill:#00D8FF;}
</style>
<g>
	<circle class="st0" cx="13" cy="13" r="2.3"/>
	<path class="st0" d="M24.7,10.7c-0.8-0.7-1.9-1.3-3.3-1.7c-0.3-0.1-0.5-0.2-0.8-0.3c0-0.2,0.1-0.4,0.1-0.6C21,6.6,21,5.3,20.9,4.2
		c-0.2-1.2-0.7-2-1.4-2.4c-0.7-0.4-1.6-0.4-2.7,0c-1,0.4-2.1,1-3.1,2c-0.2,0.2-0.4,0.4-0.6,0.6c-0.1-0.1-0.3-0.3-0.4-0.4
		c-1.1-1-2.3-1.7-3.3-2.1c-1.1-0.4-2.1-0.4-2.8,0C5.8,2.2,5.3,3,5.1,4.1C5,5.1,5,6.4,5.3,7.8c0.1,0.3,0.1,0.6,0.2,0.9
		C5.1,8.7,4.8,8.8,4.5,9C3.2,9.4,2.1,10,1.3,10.7C0.4,11.4,0,12.2,0,13c0,0.8,0.5,1.6,1.4,2.4c0.8,0.7,2,1.3,3.4,1.8
		c0.2,0.1,0.5,0.2,0.7,0.2c-0.1,0.3-0.1,0.6-0.2,0.9C5,19.7,5,21,5.1,22c0.2,1.1,0.7,1.9,1.3,2.3c0.4,0.2,0.8,0.3,1.2,0.3
		c0.5,0,1-0.1,1.5-0.3c1-0.4,2.2-1.1,3.3-2c0.2-0.2,0.4-0.3,0.5-0.5c0.2,0.2,0.5,0.4,0.7,0.6c1.1,0.9,2.1,1.6,3.1,1.9
		c0.5,0.2,1,0.3,1.4,0.3c0.5,0,0.9-0.1,1.2-0.3c0.7-0.4,1.2-1.2,1.4-2.4c0.2-1.1,0.2-2.4-0.1-3.8c0-0.2-0.1-0.5-0.2-0.7
		c0.2,0,0.3-0.1,0.5-0.2c1.4-0.5,2.6-1.1,3.5-1.8c0.9-0.8,1.4-1.6,1.4-2.4C26,12.2,25.5,11.4,24.7,10.7z M17.2,2.8
		c0.4-0.2,0.8-0.2,1.1-0.2c0.3,0,0.5,0,0.6,0.1c0.4,0.2,0.7,0.8,0.8,1.6c0.2,1,0.1,2.2-0.2,3.5c0,0.2-0.1,0.3-0.1,0.5
		C18.4,8.1,17.2,8,16,7.8c-0.3-0.4-0.5-0.8-0.8-1.1c-0.5-0.6-0.9-1.1-1.4-1.6c0.2-0.2,0.4-0.4,0.6-0.5C15.4,3.7,16.3,3.1,17.2,2.8z
		 M16.6,15.1c-0.4,0.7-0.8,1.4-1.2,2c-0.8,0.1-1.6,0.1-2.4,0.1c-0.8,0-1.6,0-2.4-0.1c-0.4-0.6-0.9-1.3-1.3-2l0,0
		C9,14.4,8.6,13.7,8.3,13c0.3-0.7,0.7-1.4,1.1-2.1l0,0c0.4-0.7,0.8-1.4,1.3-2c0.8-0.1,1.6-0.1,2.4-0.1c0.8,0,1.6,0,2.4,0.1
		c0.4,0.6,0.9,1.3,1.3,2c0.4,0.7,0.8,1.4,1.1,2.1C17.4,13.7,17,14.4,16.6,15.1z M18.3,14.3c0.3,0.8,0.6,1.6,0.9,2.3
		c-0.8,0.2-1.6,0.3-2.4,0.4c0.3-0.4,0.5-0.9,0.8-1.3C17.9,15.2,18.1,14.7,18.3,14.3z M13,20.1c-0.5-0.6-1.1-1.2-1.6-1.9
		c0.5,0,1,0,1.5,0c0.5,0,1.1,0,1.6,0C14.1,19,13.6,19.6,13,20.1z M9.2,17c-0.9-0.1-1.7-0.2-2.4-0.4c0.2-0.7,0.5-1.5,0.8-2.3
		c0.2,0.4,0.5,0.9,0.7,1.3l0,0C8.7,16.1,9,16.6,9.2,17z M8.4,10.4c-0.3,0.4-0.5,0.9-0.7,1.3c-0.3-0.8-0.6-1.5-0.8-2.2
		C7.6,9.3,8.4,9.1,9.2,9C8.9,9.5,8.7,9.9,8.4,10.4L8.4,10.4z M13,5.9c0.5,0.6,1,1.2,1.5,1.8c-0.5,0-1,0-1.5,0c-0.5,0-1,0-1.5,0
		C12,7.1,12.5,6.5,13,5.9z M17.6,10.3c-0.3-0.4-0.5-0.9-0.8-1.3c0.8,0.1,1.6,0.2,2.4,0.4c-0.2,0.7-0.5,1.5-0.8,2.2
		C18.1,11.3,17.8,10.8,17.6,10.3z M6.4,7.6C6.1,6.3,6.1,5.2,6.2,4.3C6.4,3.5,6.6,2.9,7,2.7c0.4-0.2,1.1-0.2,1.8,0.1
		c0.9,0.3,1.9,1,3,1.9C12,4.9,12.1,5,12.2,5.1c-0.8,0.8-1.5,1.7-2.2,2.7C9.5,7.9,8.9,8,8.4,8C7.8,8.1,7.1,8.2,6.5,8.4
		C6.5,8.1,6.4,7.8,6.4,7.6z M5.1,16.1c-1.3-0.4-2.3-1-3-1.6c-0.6-0.5-1-1.1-1-1.5c0-0.4,0.3-1,0.9-1.5c0.7-0.6,1.7-1.1,2.9-1.5
		c0.3-0.1,0.6-0.2,0.9-0.3C6.1,10.8,6.5,11.9,7,13c-0.2,0.5-0.4,1-0.6,1.5c-0.2,0.6-0.5,1.2-0.6,1.8C5.5,16.3,5.3,16.2,5.1,16.1z
		 M8.9,23.2c-0.8,0.3-1.4,0.3-1.8,0.1c-0.4-0.2-0.7-0.8-0.8-1.5c-0.2-0.9-0.1-2,0.1-3.2c0.1-0.3,0.1-0.6,0.2-0.9
		c0.6,0.1,1.3,0.3,2,0.4c0.5,0.1,1,0.1,1.5,0.2c0.3,0.4,0.6,0.9,1,1.3c0.4,0.5,0.8,1,1.3,1.5c-0.2,0.2-0.3,0.3-0.5,0.5
		C10.8,22.3,9.8,22.9,8.9,23.2z M19.7,18.3c0.3,1.3,0.3,2.5,0.1,3.4c-0.2,0.8-0.5,1.4-0.9,1.6c-0.4,0.2-1,0.2-1.7-0.1
		c-0.8-0.3-1.8-0.9-2.8-1.7c-0.2-0.2-0.4-0.4-0.7-0.6c0.4-0.5,0.9-1,1.3-1.6c0.3-0.4,0.6-0.8,0.9-1.2c0.5,0,0.9-0.1,1.3-0.1
		c0.8-0.1,1.5-0.2,2.2-0.4C19.6,17.8,19.6,18.1,19.7,18.3z M23.9,14.5c-0.8,0.6-1.8,1.2-3.2,1.6c-0.1,0-0.3,0.1-0.4,0.1
		c-0.2-0.6-0.4-1.3-0.7-2c-0.2-0.4-0.4-0.9-0.6-1.3c0.2-0.4,0.4-0.8,0.5-1.2c0.3-0.7,0.5-1.4,0.7-2c0.3,0.1,0.5,0.2,0.8,0.2
		c1.2,0.4,2.2,1,2.9,1.5c0.6,0.5,0.9,1,0.9,1.5C24.9,13.4,24.5,14,23.9,14.5z"/>
</g>
</svg>
