<?xml version="1.0" encoding="utf-8"?>
<!-- Generator: Adobe Illustrator 26.0.3, SVG Export Plug-In . SVG Version: 6.00 Build 0)  -->
<svg version="1.1" id="Capa_1" focusable="false" xmlns="http://www.w3.org/2000/svg" xmlns:xlink="http://www.w3.org/1999/xlink"
	 x="0px" y="0px" viewBox="0 0 34.7 26" style="enable-background:new 0 0 34.7 26;" xml:space="preserve">
<style type="text/css">
	.st0{fill:#D56EA3;}
</style>
<path class="st0" d="M16.3,19.7C16.3,19.7,16.3,19.7,16.3,19.7z M29.8,14.9c-1.1,0-2.2,0.2-3.1,0.7C26.4,15,26.1,14.5,26,14
	c-0.1-0.5-0.1-0.8-0.1-1.4s0.4-1.4,0.4-1.5s-0.1-0.4-0.8-0.4c-0.7,0-1.3,0.1-1.4,0.3c-0.1,0.3-0.2,0.7-0.3,1
	c-0.1,0.6-1.4,2.9-2.1,4.1c-0.2-0.5-0.4-0.9-0.5-1.2c-0.1-0.5-0.1-0.8-0.1-1.4c0.1-0.6,0.4-1.4,0.4-1.5s-0.1-0.4-0.8-0.4
	c-0.7,0-1.3,0.1-1.4,0.3c-0.1,0.2-0.1,0.6-0.3,1c-0.1,0.4-1.8,4.2-2.3,5.2c-0.2,0.5-0.4,0.9-0.6,1.2c0,0,0,0.1,0,0.1c0,0,0-0.1,0,0
	c-0.1,0.2-0.2,0.4-0.2,0.4v0c-0.1,0.2-0.2,0.3-0.2,0.3c0,0-0.1-0.5,0-1.1c0.3-1.3,0.9-3.3,0.9-3.4c0,0,0.1-0.4-0.4-0.6
	c-0.5-0.2-0.7,0.1-0.7,0.1c0,0-0.1,0.1-0.1,0.1s0.5-2.3-1.1-2.3c-1,0-2.4,1.1-3.1,2.1c-0.4,0.2-1.4,0.7-2.3,1.3
	c-0.4,0.2-0.8,0.4-1.1,0.6c0,0,0-0.1-0.1-0.1C6,15,2.5,13.5,2.6,10.8c0.1-1,0.4-3.7,6.9-6.9c5.3-2.6,9.6-1.9,10.3-0.3
	c1.1,2.3-2.3,6.6-7.8,7.2C9.9,11,8.8,10.2,8.5,9.9C8.2,9.5,8.2,9.5,8.1,9.6C7.9,9.7,8,10,8.1,10.1c0.2,0.4,0.8,1.2,2,1.6
	c1,0.3,3.5,0.5,6.5-0.6c3.3-1.3,6-4.9,5.2-7.9c-0.8-3.1-5.8-4.1-10.6-2.4c-2.9,1-5.9,2.6-8.2,4.7C0.3,8-0.1,10.1,0,11
	c0.6,3.2,5,5.3,6.8,6.8c-0.1,0-0.2,0.1-0.2,0.1c-0.9,0.4-4.2,2.2-5.1,4c-0.9,2.1,0.2,3.6,0.9,3.8c2.3,0.6,4.6-0.5,5.8-2.4
	c1.2-1.9,1.1-4.3,0.5-5.4c0,0,0,0,0,0c0.2-0.1,0.5-0.3,0.7-0.4c0.4-0.3,0.9-0.5,1.3-0.7c-0.2,0.6-0.4,1.3-0.5,2.3
	c-0.1,1.2,0.4,2.7,1,3.3c0.3,0.3,0.6,0.3,0.8,0.3c0.7,0,1.1-0.6,1.5-1.4c0.5-0.9,0.9-1.9,0.9-1.9s-0.5,2.8,0.9,2.8
	c0.5,0,1-0.7,1.2-1v0c0,0,0,0,0-0.1c0.1-0.1,0.1-0.1,0.1-0.1v0c0.2-0.4,0.7-1.2,1.3-2.5c0.9-1.7,1.7-3.9,1.7-3.9
	c0.1,0.5,0.2,0.9,0.3,1.4c0.2,0.5,0.5,1.1,0.7,1.6c-0.2,0.3-0.3,0.4-0.3,0.4c0,0,0,0,0,0c-0.2,0.2-0.3,0.4-0.5,0.7
	c-0.7,0.8-1.5,1.8-1.6,2c-0.1,0.3-0.1,0.6,0.2,0.7c0.2,0.1,0.5,0.2,0.9,0.1c0.6,0,1.1-0.2,1.3-0.3c0.4-0.1,0.8-0.3,1.1-0.6
	c0.7-0.5,1.1-1.2,1.1-2.2c0-0.5-0.2-1-0.4-1.5c0.1-0.1,0.1-0.2,0.2-0.3c1.1-1.6,1.9-3.3,1.9-3.3c0.1,0.5,0.2,0.9,0.3,1.4
	c0.1,0.4,0.4,0.9,0.6,1.4c-1,0.8-1.6,1.8-1.8,2.4c-0.4,1.2-0.1,1.7,0.5,1.8c0.3,0.1,0.6-0.1,0.9-0.2c0.4-0.1,0.8-0.3,1.2-0.6
	c0.7-0.5,1.3-1.2,1.3-2.1c0-0.4-0.1-0.9-0.3-1.3c0.9-0.4,2-0.6,3.4-0.4c3,0.4,3.6,2.2,3.5,3s-0.7,1.2-1,1.4
	c-0.2,0.1-0.3,0.2-0.3,0.3c0,0.1,0.1,0.1,0.3,0.1c0.2,0,1.6-0.6,1.6-2.1C34.7,17,33,14.9,29.8,14.9L29.8,14.9z M6.6,22.8
	c-1,1.1-2.4,1.5-3,1.2c-0.6-0.4-0.4-2,0.8-3.1c0.7-0.7,1.7-1.4,2.4-1.8c0.1-0.1,0.4-0.2,0.6-0.4c0,0,0.1,0,0.1,0
	c0,0,0.1-0.1,0.2-0.1C8.1,20.2,7.6,21.6,6.6,22.8L6.6,22.8z M13.9,17.8c-0.3,0.9-1.1,3-1.5,2.9c-0.4-0.1-0.6-1.7-0.1-3.4
	c0.3-0.8,0.8-1.8,1.2-2.2c0.5-0.6,1.1-0.8,1.3-0.6C14.9,14.9,14.1,17.3,13.9,17.8L13.9,17.8z M19.9,20.7c-0.1,0.1-0.3,0.1-0.3,0.1
	c0,0,0.1-0.1,0.1-0.1s0.8-0.8,1.1-1.2c0.2-0.2,0.4-0.5,0.6-0.8c0,0,0,0.1,0,0.1C21.2,19.8,20.3,20.4,19.9,20.7L19.9,20.7z
	 M24.5,19.6c-0.1-0.1-0.1-0.3,0.3-1.1c0.1-0.3,0.5-0.8,1-1.3c0.1,0.2,0.1,0.4,0.1,0.6C25.9,19,25,19.5,24.5,19.6L24.5,19.6z"/>
</svg>
